<svg width="50" height="50" viewBox="0 0 50 50" fill="none" xmlns="http://www.w3.org/2000/svg">
<g clip-path="url(#clip0)">
<rect width="50" height="50" rx="5" fill="#40108F"/>
<path d="M11.048 39C10.68 39 10.36 38.864 10.088 38.592C9.832 38.32 9.704 38 9.704 37.632V22.368C9.704 22 9.832 21.68 10.088 21.408C10.36 21.136 10.68 21 11.048 21H12.224C12.592 21 12.904 21.136 13.16 21.408C13.432 21.68 13.568 22 13.568 22.368V31.224C13.568 31.24 13.576 31.248 13.592 31.248L13.64 31.224L16.64 27.576C17.216 26.872 17.952 26.52 18.848 26.52H20.576C20.832 26.52 21.016 26.64 21.128 26.88C21.256 27.12 21.232 27.344 21.056 27.552L16.952 32.376C16.872 32.472 16.872 32.576 16.952 32.688L21.104 37.944C21.264 38.168 21.28 38.4 21.152 38.64C21.04 38.88 20.848 39 20.576 39H18.848C17.952 39 17.224 38.64 16.664 37.92L13.64 33.984C13.624 33.968 13.608 33.96 13.592 33.96C13.576 33.96 13.568 33.968 13.568 33.984V37.632C13.568 38 13.432 38.32 13.16 38.592C12.904 38.864 12.592 39 12.224 39H11.048Z" fill="white"/>
<path d="M24.392 39C23.84 39 23.36 38.796 22.952 38.388C22.568 37.98 22.376 37.5 22.376 36.948V36.12C22.376 34.728 22.748 33.48 23.492 32.376L33.392 17.76V17.724L33.428 17.688C33.428 17.664 33.416 17.652 33.392 17.652H24.392C23.84 17.652 23.36 17.448 22.952 17.04C22.568 16.632 22.376 16.152 22.376 15.6V14.772C22.376 14.22 22.568 13.74 22.952 13.332C23.36 12.924 23.84 12.72 24.392 12.72H38.576C39.128 12.72 39.596 12.924 39.98 13.332C40.388 13.74 40.592 14.22 40.592 14.772V15.6C40.592 16.992 40.22 18.24 39.476 19.344L29.576 33.96V33.996L29.54 34.032C29.54 34.056 29.552 34.068 29.576 34.068H38.576C39.128 34.068 39.596 34.272 39.98 34.68C40.388 35.088 40.592 35.568 40.592 36.12V36.948C40.592 37.5 40.388 37.98 39.98 38.388C39.596 38.796 39.128 39 38.576 39H24.392Z" fill="white"/>
</g>
<defs>
<clipPath id="clip0">
<rect width="50" height="50" fill="white"/>
</clipPath>
</defs>
</svg>
